<svg width="241.89" height="216.595" viewBox="0 0 64 57.307" xml:space="preserve" xmlns="http://www.w3.org/2000/svg">
    <path style="baseline-shift:baseline;display:inline;overflow:visible;vector-effect:none;fill:#000;stroke:none;stroke-width:.580741;stroke-opacity:1;enable-background:accumulate;stop-color:#000" d="M47.5 119.846c-.606 0-1.165.293-1.716.71-.55.415-1.094.978-1.602 1.627-1.017 1.299-1.892 2.937-2.214 4.478-.589 2.812.024 6.185 1.643 9.398.05.1.055.13.097.217-.053-.021-.092-.03-.144-.053-.467-.198-.828-.328-1.29-.394-.462-.066-.998-.072-1.917-.074-1.21-.002-1.973.024-2.812.302-.838.278-1.692.774-3.2 1.675-2.931 1.752-5.044 2.544-6.398 2.548-.473 0-.907.096-1.263.34-.356.244-.593.63-.7 1.057-.111.443.026.967.383 1.468.358.5.933 1.095 1.873 2.01 3.722 3.63 6.545 5.033 10.99 5.444.542.05 1.047.108 1.415.158.146.02.249.037.343.053l.02.049c.07.176.167.43.28.738.224.615.516 1.445.822 2.33.61 1.77 1.274 3.774 1.55 4.724.288.99.646 2.435.782 3.144l.22 1.153-.522.864c-.815 1.351-1.098 2.549-1.002 4.207.098 1.693.753 3.12 2.043 4.514 1.963 2.12 4.805 3.512 8.42 4.242v.029l.453.083c2.252.41 6.497.338 8.701-.151 2.947-.654 5.404-1.803 7.175-3.318 1.772-1.515 2.86-3.418 2.981-5.504.09-1.535-.226-2.723-1.092-4.154l-.488-.808.158-.832c.37-1.948 1.154-4.625 2.405-8.196l1.147-3.277 1.602-.151c3.662-.347 5.548-1.057 8.553-3.222.69-.497 1.733-1.452 2.667-2.374.466-.462.9-.911 1.237-1.288.169-.188.312-.357.428-.507.116-.15.202-.25.277-.447.139-.365.189-.713.088-1.114-.108-.43-.388-.843-.805-1.067-.417-.223-.91-.305-1.579-.363-1.255-.108-3.057-.768-4.927-1.864-2.143-1.255-3.271-1.912-4.229-2.271-.957-.36-1.71-.38-2.892-.369-1.376.012-1.95.105-2.929.47-.04.015-.065.02-.105.035.048-.105.076-.18.13-.293 2.568-5.405 2.278-10.39-.936-13.942-.817-.903-1.563-1.524-2.293-1.84-.73-.316-1.556-.258-2.085.271-.23.23-.445.576-.528 1.036-.083.46-.11 1.075-.148 2.18-.104 2.986-.947 4.794-2.633 5.92-.646.43-.987.612-1.823.726-.836.115-2.162.125-4.54.096l-4.023-.05-.77-.378c-2.11-1.036-3.318-3.322-3.352-6.66-.012-1.157-.05-1.896-.34-2.485a1.477 1.477 0 0 0-.677-.682c-.288-.135-.591-.168-.908-.168zm22.444 6.267c.726 1.61.84 3.45.227 5.64-.129.458-.297.883-.425 1.204l-.02-.03a14.235 14.235 0 0 0-1.392-1.726l-.422-.437.155-.197c.507-.64 1.002-1.636 1.404-2.647.268-.675.353-1.229.473-1.807zm-23.874.14c.056.234.06.41.139.68.19.652.436 1.35.682 1.88a9.568 9.568 0 0 0 1.067 1.707l.31.39-.016.015c-.325.303-.86.973-1.38 1.663-.181.242-.333.434-.484.626-.026-.064-.043-.094-.07-.165a17.713 17.713 0 0 1-.591-1.932c-.44-1.833-.27-3.386.343-4.863zm4.356 7.757h15.487l.683.96c1.447 2.03 2.612 4.314 4.3 8.454.803 1.97.844 2.105.908 3.429.043.867.068 1.182-.142 2.029-.21.846-.674 2.211-1.61 4.947-.76 2.227-1.533 4.678-1.746 5.583l-.207.876a34.295 34.295 0 0 1-.566-.29c-5.738-3.006-14.087-2.929-19.435.21l-.158.091c-.041-.162-.08-.304-.126-.5-.37-1.57-1.471-5.06-2.698-8.575-.442-1.268-.674-1.962-.79-2.46-.116-.498-.128-.816-.13-1.448-.002-1.49.133-1.964 1.287-4.667 1.387-3.247 2.76-5.731 4.273-7.746zm25.181 5.224c1.015 0 1.848.304 3.768 1.452 2.2 1.314 2.837 1.645 4.352 2.26.222.09.396.174.57.258-.235.212-.542.47-.905.75-.796.617-1.78 1.296-2.357 1.603-.597.319-1.655.736-2.203.876-.566.145-1.724.33-2.458.387l-.818.063v-.166c0-1.255-.496-2.928-1.484-5.309a31.342 31.342 0 0 1-.57-1.463c-.034-.097-.05-.15-.075-.227.184-.068.425-.144.691-.215.568-.151 1.25-.27 1.49-.27zm-35.354.154c.483 0 1.04.069 1.514.177.408.094.69.223.852.312-.074.245-.284.758-.7 1.712-1.039 2.384-1.418 3.708-1.421 5.12l-.001.3c-1.75-.093-3.423-.402-4.473-.81-1.161-.454-3.102-1.701-4.192-2.716l-.245-.228.136-.05c1.349-.488 2.87-1.26 4.77-2.409 1.988-1.203 2.543-1.408 3.76-1.408zm18.553 22.17c2.034.09 3.982.493 5.628 1.13 1.463.567 2.684 1.317 3.517 2.162.833.845 1.275 1.76 1.276 2.729.002 1.009-.586 2.074-1.732 3.044-1.145.97-2.827 1.815-4.857 2.35-1.29.338-1.789.39-4.161.436-3.006.058-4.13-.084-6.167-.768-2.196-.737-3.81-1.83-4.695-2.994-.884-1.164-1.076-2.337-.509-3.52.81-1.691 3.467-3.403 6.902-4.164.905-.2 1.825-.326 2.744-.384a19.26 19.26 0 0 1 2.054-.02zm5.876 4.079c-.494 0-.942.02-1.31.057-.367.036-.609.048-.904.197a1.856 1.856 0 0 0-1.014 1.374c-.082.566.116 1.172.565 1.62.186.186.508.357.877.41.369.051.844.055 1.667.055.882 0 1.35.002 1.732-.062.382-.064.691-.28.887-.476.352-.352.557-.816.538-1.289-.02-.472-.25-.917-.61-1.278-.225-.225-.5-.456-.874-.537-.373-.082-.777-.072-1.553-.071zm-14.08 0c-.264 0-.47.01-.663.042-.385.062-.679.265-.923.47-.408.344-.666.809-.695 1.302-.03.493.176.987.55 1.36.196.197.504.412.885.477.38.065.844.062 1.719.062h2.094l.577-.686c.308-.365.484-.812.462-1.264-.022-.452-.238-.879-.577-1.219-.19-.19-.5-.353-.858-.416-.357-.063-.81-.082-1.56-.104-.424-.012-.746-.024-1.01-.024z" transform="translate(-25.946 -119.846)"/>
</svg>
