<svg width="391.423" height="263.577" viewBox="0 0 103.564 69.738" xml:space="preserve" xmlns="http://www.w3.org/2000/svg">
    <path style="fill:#000" d="M77.115 150.945c-5.44-.675-11.84-2.468-15.706-4.4-2.734-1.367-5.847-3.573-7.383-5.231-1.937-2.093-3.004-4.02-3.66-6.615-.51-2.014-.534-2.745-.438-12.655.097-9.876.138-10.633.68-12.427 2.477-8.213 9.512-16.277 17.908-20.526 11.455-5.797 21.787-7.889 36.91-7.472 17.252.475 31.659 2.732 39.695 6.217 4.585 1.989 6.771 4.103 7.847 7.586.429 1.389.48 2.661.48 12.004 0 10.4-.003 10.459-.631 12.018-.456 1.13-1.124 2.058-2.402 3.336-2.547 2.548-4.549 3.28-11.255 4.12-2.765.347-5.98.822-7.144 1.056-2.709.544-6.128 1.952-8.39 3.454-1.814 1.204-6.625 5.342-7.008 6.027-.478.853-6.048 6.584-7.442 7.657-4.145 3.188-10.791 5.37-18.233 5.987-4.186.347-10.432.285-13.828-.136zm16.67-21.143c8.782-1.758 13.933-4.477 18.47-9.75 4.37-5.076 8.362-8.377 12.451-10.291 2.723-1.275 5.266-1.89 10.75-2.597 5.143-.664 6.842-1.072 9.295-2.23 7.18-3.391 7.186-10.046.012-14.15-3.288-1.88-9.53-3.524-18.199-4.793-6.61-.968-9.67-1.226-19.022-1.606-11.237-.457-16.108-.08-23.817 1.84-13.302 3.316-22.118 9.058-27.067 17.63-4.693 8.127-3.78 14.76 2.752 20.011 3.373 2.712 10.258 5.287 16.515 6.177 3.73.53 14.748.382 17.86-.24zm-10.235-2.3c-.317-.163-.705-.609-.862-.992-.578-1.405.451-3.314 3.673-6.812.97-1.053 2.372-3.018 3.18-4.456.795-1.414 1.786-2.859 2.203-3.21 1.42-1.194 3.346-.68 5.493 1.468 2.808 2.808 3.976 7.357 2.582 10.062-.788 1.531-2.43 2.755-4.657 3.47-1.47.472-2.572.587-6.405.668-3.077.065-4.824-.002-5.207-.198zm-17.415-4.005c-1.31-.476-2.924-1.24-3.587-1.699-3.485-2.409-5.182-5.963-4.956-10.377.345-6.73 6.45-13.853 15.951-18.61 3.166-1.585 5.476-2.392 9.71-3.392 4.302-1.016 6.809-1.006 8.673.035 1.854 1.035 2.259 1.79 2.234 4.168-.047 4.432-4.684 16.345-8.74 22.455-3.275 4.933-8.535 7.95-14.258 8.18-2.465.098-2.808.046-5.027-.76zm36.733-7.284c-2.714-.97-4.199-2.643-5.742-6.47-1.196-2.966-1.775-5.59-1.948-8.825-.236-4.414.767-7.295 3.497-10.041 2.782-2.798 5.505-3.613 12.042-3.604 9.076.011 26.4 3.04 31.193 5.455 3.21 1.616 4.526 3.16 4.526 5.31 0 3.553-4.135 5.583-14.552 7.143-9.271 1.39-10.074 1.685-14.851 5.474-3.597 2.853-5.518 4.088-7.748 4.981-2.59 1.037-4.62 1.22-6.417.577z" transform="translate(-49.884 -81.568)"/>
</svg>
