<svg width="64mm" height="209.232" viewBox="0 0 64 55.359" xml:space="preserve" xmlns="http://www.w3.org/2000/svg">
    <path style="fill:#000;stroke-width:.472212" d="M133.526 176.152c-.943-.121-2.612-.598-3.635-1.038-2.797-1.203-5.247-3.538-6.576-6.265-.354-.725-1.195-3.32-2.712-8.36-1.21-4.02-2.25-7.43-2.313-7.578-.111-.26-.198-.27-2.778-.325-2.276-.048-2.8-.097-3.6-.334-4.275-1.263-7.356-4.468-8.446-8.785-.124-.492-.222-1.605-.264-3l-.067-2.217H111.537v-1.241c0-3.666 1.753-6.904 4.865-8.986 1.856-1.241 3.764-1.792 6.094-1.758l1.402.02.951-1.011c2.026-2.154 4.61-3.622 7.428-4.22 1.46-.31 4.294-.312 5.747-.003 2.7.574 5.132 1.923 7.176 3.982l1.24 1.251 1.383-.02c3.09-.044 5.82 1.085 7.888 3.262 2.074 2.183 3.053 4.604 3.053 7.548v1.176H167.135v1.732c0 .976-.082 2.2-.187 2.802-.783 4.495-3.974 8.072-8.399 9.416-1.005.305-1.32.338-3.76.388-2.581.053-2.667.063-2.778.323-.063.148-1.104 3.555-2.313 7.572-2.696 8.956-2.953 9.538-5.233 11.82-2.51 2.513-5.391 3.766-8.877 3.861-.894.025-1.821.02-2.062-.012zm4.06-3.982c2.562-.695 4.789-2.514 5.993-4.894.277-.548 1.421-4.136 3.201-10.035 1.524-5.051 2.795-9.246 2.824-9.323.038-.098-.293-.12-1.141-.076-1.745.091-3.793-.31-5.144-1.01-.366-.189-.407-.177-1.866.546-.834.413-2.044.891-2.742 1.083-1.159.319-1.416.343-3.56.338-2.106-.005-2.423-.035-3.561-.34-.733-.198-1.866-.643-2.742-1.078-1.46-.726-1.5-.738-1.866-.548-1.35.698-3.4 1.1-5.144 1.009-.848-.045-1.179-.022-1.141.076.03.077 1.27 4.176 2.76 9.109 1.488 4.933 2.81 9.235 2.938 9.559 1.113 2.824 3.726 5.005 6.826 5.7 1.069.238 3.274.18 4.366-.116zm-4.31-3.996v-1.56l-1.692-1.27c-1.02-.767-1.668-1.335-1.631-1.431.034-.088.523-.777 1.088-1.53l1.027-1.371 1.474 1.113c.81.612 1.534 1.113 1.608 1.113.075 0 .799-.501 1.61-1.113l1.473-1.113 1.027 1.37c.565.754 1.054 1.443 1.088 1.53.037.097-.61.665-1.631 1.432l-1.692 1.27v3.12h-3.749zm-16.299-19.648a27.11 27.11 0 0 0-.415-1.418c-.323-1.022-.378-1.106-1.124-1.725-.9-.747-1.993-2.026-2.42-2.832l-.294-.553h-2.842c-3.281 0-3.047-.127-2.54 1.373.678 2.003 2.163 3.729 3.972 4.615 1.472.722 2.143.866 4.075.875l1.665.008zm40.23.155a8.23 8.23 0 0 0 5.751-5.31c.508-1.5.742-1.373-2.539-1.373h-2.842l-.294.553c-.428.806-1.52 2.085-2.42 2.832-.746.62-.8.703-1.124 1.725a27.12 27.12 0 0 0-.416 1.418l-.076.344h1.608c1.022 0 1.879-.07 2.352-.189zm-19.608-3.815c1.642-.374 2.985-1.076 4.55-2.375l.566-.469.684.496c1.521 1.102 2.94 1.6 4.558 1.6 3.213 0 6.057-2.2 6.868-5.313.813-3.12-.74-6.59-3.599-8.04-1.65-.838-3.533-.999-5.467-.466l-1.072.294-.674-1.075c-1.486-2.366-3.523-3.896-6.22-4.668-1.367-.391-3.918-.391-5.286 0-2.696.772-4.733 2.302-6.219 4.668l-.675 1.075-1.071-.294c-2.754-.758-5.291-.135-7.198 1.766-1.521 1.516-2.145 3.174-2.03 5.392.136 2.61 1.53 4.743 3.874 5.93 2.441 1.235 5.243.92 7.707-.864l.678-.491 1.008.797c2.658 2.102 5.713 2.792 9.018 2.037z" transform="translate(-103.135 -120.82)"/>
</svg>
